<svg width="13" height="17" viewBox="0 0 13 17" fill="none" xmlns="http://www.w3.org/2000/svg">
<path d="M11.316 0.24945C11.2394 0.0913415 11.0716 0.00433176 10.8982 0.0328411C10.4537 0.10627 9.65871 0.282445 8.7402 0.689277C8.8559 0.876834 9.22657 1.35609 10.2122 1.86709C11.1978 2.37808 11.8027 2.4048 12.0231 2.39127C11.8262 1.40617 11.5121 0.654761 11.3159 0.249371L11.316 0.24945ZM3.14104 8.53369C3.00348 8.52846 2.7277 8.53581 2.4038 8.6416C1.78657 8.84347 1.2954 9.28958 0.944126 9.96713L0.113744 11.5688C0.0705071 11.6522 0.101527 11.7543 0.182907 11.7965C0.226361 11.8191 0.27724 11.8209 0.323041 11.8013L3.06082 10.6391C3.01658 10.033 3.04498 9.29804 3.14112 8.53353L3.14104 8.53369ZM4.46464 11.7113L3.41636 11.1678L3.36974 11.6042C3.36623 11.6365 3.38252 11.6667 3.41046 11.6812L4.27955 12.1318C4.33645 11.998 4.39818 11.8575 4.46457 11.711L4.46464 11.7113ZM6.00473 9.98262C5.79821 9.87555 5.54051 9.96076 5.43079 10.1724C4.92084 11.156 4.52189 12.0131 4.27676 12.6512C3.87534 13.6961 4.02868 13.7904 4.03022 13.7911C4.03175 13.7919 4.2001 13.8449 4.81534 12.9302C5.2002 12.3581 5.68499 11.5166 6.18041 10.561C6.29013 10.3494 6.21141 10.0898 6.00473 9.98262ZM5.7749 13.1297L5.13306 12.7969C5.07867 12.8819 5.02578 12.9629 4.97456 13.0387C4.32737 14.0011 4.08137 14.0401 3.93934 13.9664C3.79731 13.8928 3.68024 13.6658 4.09619 12.5832C4.12906 12.4976 4.16499 12.408 4.20302 12.3147L3.56518 11.984C2.90337 12.3565 2.4899 13.0465 2.48265 13.7974C2.4791 14.1823 2.57677 14.5899 2.67119 14.9838C2.75549 15.3367 2.8426 15.6993 2.85851 16.0512C3.15499 15.8615 3.50182 15.7235 3.83869 15.5893C4.21521 15.4391 4.6046 15.284 4.91709 15.0593C5.52687 14.6208 5.85235 13.8851 5.77498 13.1295L5.7749 13.1297ZM5.47714 12.2362C5.39556 12.3744 5.31586 12.5056 5.23899 12.6294L6.11161 13.0818C6.1397 13.0964 6.17362 13.0922 6.19802 13.0707L6.52779 12.7811L5.4769 12.2363L5.47714 12.2362ZM8.9993 4.20658C8.1752 3.77934 7.14879 4.11885 6.71088 4.96351C6.27297 5.80817 6.5872 6.84233 7.4113 7.26958C8.23539 7.69683 9.26203 7.35763 9.69986 6.51313C10.1377 5.66863 9.82354 4.63391 8.9993 4.20658ZM8.9993 4.20658C8.1752 3.77934 7.14879 4.11885 6.71088 4.96351C6.27297 5.80817 6.5872 6.84233 7.4113 7.26958C8.23539 7.69683 9.26203 7.35763 9.69986 6.51313C10.1377 5.66863 9.82354 4.63391 8.9993 4.20658ZM12.1535 3.24748C12.1292 3.01769 12.0974 2.79694 12.0598 2.58578C11.8251 2.60666 11.1811 2.59182 10.1213 2.04238C9.06153 1.49293 8.6782 0.974966 8.55985 0.771464C8.36569 0.86226 8.16692 0.963446 7.96546 1.07621C6.43891 1.93025 5.25228 3.15937 4.43838 4.72926C3.49158 6.55547 3.1022 9.26622 3.27287 10.8321C3.27573 10.8581 3.29089 10.8803 3.31362 10.8921L4.54676 11.5314C4.74924 11.0932 4.98906 10.6058 5.25973 10.0837C5.41963 9.77531 5.79465 9.65131 6.09561 9.80734C6.39656 9.96336 6.51136 10.3413 6.35146 10.6497C6.08593 11.1619 5.82328 11.6418 5.57707 12.0656L6.81252 12.7061C6.8351 12.7178 6.8624 12.7174 6.88509 12.7048C8.26296 11.9418 10.2541 10.0613 11.2008 8.23521C12.0147 6.66532 12.3353 4.98722 12.1535 3.24748ZM7.10228 7.86562C5.95773 7.27224 5.52123 5.83509 6.12939 4.66204C6.73756 3.48899 8.16345 3.01739 9.30815 3.61085C10.4529 4.20432 10.8894 5.64147 10.2812 6.81452C9.67303 7.98757 8.24699 8.45909 7.10228 7.86562ZM9.21727 3.78614C8.167 3.24163 6.85852 3.67428 6.30045 4.75072C5.74237 5.82716 6.14289 7.14583 7.19316 7.69034C8.24343 8.23484 9.55206 7.80228 10.1101 6.72584C10.6682 5.6494 10.2677 4.33073 9.21727 3.78614ZM7.32034 7.44502C6.40197 6.9689 6.05199 5.81578 6.53983 4.87483C7.02767 3.93387 8.17172 3.55533 9.09009 4.03145C10.0085 4.50758 10.3586 5.66077 9.87076 6.60173C9.38292 7.54269 8.23856 7.92107 7.32034 7.44502ZM8.9993 4.20658C8.1752 3.77934 7.14879 4.11885 6.71088 4.96351C6.27297 5.80817 6.5872 6.84233 7.4113 7.26958C8.23539 7.69683 9.26203 7.35763 9.69986 6.51313C10.1377 5.66863 9.82354 4.63391 8.9993 4.20658ZM9.17316 12.144C9.07265 11.8211 8.92227 11.5956 8.83969 11.4877C8.2704 12.0067 7.68614 12.4539 7.16517 12.767L7.79302 15.6741C7.8035 15.7226 7.83438 15.7634 7.87783 15.7859C7.95906 15.828 8.06055 15.7946 8.10379 15.7112L8.93417 14.1095C9.28724 13.4285 9.3675 12.7672 9.17324 12.1438L9.17316 12.144Z" fill="#F8F8F8"/>
</svg>
